<?xml version="1.0" encoding="utf-8"?>
<!-- Generator: Adobe Illustrator 18.0.0, SVG Export Plug-In . SVG Version: 6.00 Build 0)  -->
<!DOCTYPE svg PUBLIC "-//W3C//DTD SVG 1.1//EN" "http://www.w3.org/Graphics/SVG/1.1/DTD/svg11.dtd">
<svg version="1.1" id="Ebene_1" xmlns="http://www.w3.org/2000/svg" xmlns:xlink="http://www.w3.org/1999/xlink" x="0px" y="0px"
	 viewBox="0 0 240.9 240.9" enable-background="new 0 0 240.9 240.9" xml:space="preserve">
<g>
	<g>
		<path fill="#CC527F" d="M120.5,150.6c-37.4,0-67.7-30.4-67.7-67.7s30.4-67.7,67.7-67.7s67.7,30.4,67.7,67.7
			S157.8,150.6,120.5,150.6z M120.5,35c-26.4,0-47.9,21.5-47.9,47.9s21.5,47.9,47.9,47.9c26.4,0,47.9-21.5,47.9-47.9
			S146.9,35,120.5,35z"/>
	</g>
	<g>
		<path fill="#CC527F" d="M120.5,225.8c-5.5,0-9.9-4.4-9.9-9.9v-75.2c0-5.5,4.4-9.9,9.9-9.9s9.9,4.4,9.9,9.9v75.2
			C130.4,221.4,126,225.8,120.5,225.8z"/>
	</g>
	<g>
		<path fill="#CC527F" d="M151.7,186H89.2c-5.5,0-9.9-4.4-9.9-9.9s4.4-9.9,9.9-9.9h62.5c5.5,0,9.9,4.4,9.9,9.9S157.2,186,151.7,186z
			"/>
	</g>
</g>
</svg>
