<?xml version="1.0" encoding="utf-8"?>
<!-- Generator: Adobe Illustrator 18.0.0, SVG Export Plug-In . SVG Version: 6.00 Build 0)  -->
<!DOCTYPE svg PUBLIC "-//W3C//DTD SVG 1.1//EN" "http://www.w3.org/Graphics/SVG/1.1/DTD/svg11.dtd">
<svg version="1.1" id="Ebene_1" xmlns="http://www.w3.org/2000/svg" xmlns:xlink="http://www.w3.org/1999/xlink" x="0px" y="0px"
	 viewBox="0 0 312.4 145.5" enable-background="new 0 0 312.4 145.5" xml:space="preserve">
<path fill="#60AE3C" d="M262.5,33.7c4.4,0,8,3.6,8,8v62c0,4.4-3.6,8-8,8H49.9c-4.4,0-8-3.6-8-8v-62c0-4.4,3.6-8,8-8H262.5
	 M262.5,29.7H49.9c-6.6,0-12,5.4-12,12v62c0,6.6,5.4,12,12,12h212.7c6.6,0,12-5.4,12-12v-62C274.5,35.1,269.1,29.7,262.5,29.7
	L262.5,29.7z"/>
<g>
	<path fill="#60AE3C" d="M78.7,70.6v17.1c0,0.5-0.2,0.9-0.5,1.2c-0.3,0.3-0.7,0.5-1.2,0.5h-7.7c-0.5,0-0.9-0.2-1.2-0.5
		c-0.3-0.3-0.5-0.7-0.5-1.2V70.6c0-0.5,0.2-0.9,0.5-1.2c0.3-0.3,0.7-0.5,1.2-0.5H77c0.5,0,0.9,0.2,1.2,0.5
		C78.6,69.7,78.7,70.1,78.7,70.6z M74.5,84.3c0-0.5-0.2-0.9-0.5-1.2c-0.3-0.3-0.7-0.5-1.2-0.5c-0.5,0-0.9,0.2-1.2,0.5
		c-0.3,0.3-0.5,0.7-0.5,1.2c0,0.5,0.2,0.9,0.5,1.2c0.3,0.3,0.7,0.5,1.2,0.5c0.5,0,0.9-0.2,1.2-0.5C74.3,85.2,74.5,84.8,74.5,84.3z
		 M110.5,70.6c0,1.5-0.5,2.9-1.5,4c0.3,0.8,0.4,1.5,0.4,2c0.1,1.4-0.3,2.6-1.2,3.7c0.3,1,0.3,2,0,3.1c-0.3,1-0.8,1.9-1.4,2.5
		c0.2,2-0.3,3.6-1.3,4.8c-1.1,1.4-2.9,2.1-5.3,2.1h-1h-2h-0.5c-1.2,0-2.5-0.1-3.9-0.4c-1.4-0.3-2.5-0.5-3.3-0.8
		c-0.8-0.2-1.9-0.6-3.2-1.1c-2.2-0.8-3.6-1.2-4.2-1.2c-0.5,0-0.9-0.2-1.2-0.5c-0.3-0.3-0.5-0.7-0.5-1.2V70.6c0-0.4,0.2-0.8,0.5-1.2
		s0.7-0.5,1.2-0.5c0.4,0,1.1-0.6,2-1.6c0.9-1,1.8-2.1,2.7-3.2c1.2-1.6,2.1-2.6,2.7-3.2c0.3-0.3,0.6-0.8,0.8-1.3
		c0.2-0.5,0.4-1,0.5-1.3c0.1-0.3,0.2-0.9,0.4-1.6c0.1-0.7,0.2-1.2,0.3-1.6c0.1-0.4,0.3-0.9,0.5-1.4c0.2-0.5,0.6-1,0.9-1.3
		c0.3-0.3,0.7-0.5,1.2-0.5c0.8,0,1.6,0.1,2.2,0.3c0.7,0.2,1.2,0.4,1.6,0.7c0.4,0.3,0.8,0.6,1.1,1.1s0.5,0.8,0.6,1.2
		c0.1,0.4,0.2,0.8,0.3,1.3c0.1,0.5,0.1,0.9,0.1,1.2c0,0.3,0,0.6,0,1c0,0.7-0.1,1.4-0.3,2c-0.2,0.7-0.3,1.2-0.5,1.6
		c-0.2,0.4-0.4,0.9-0.7,1.5c-0.1,0.1-0.1,0.3-0.3,0.5c-0.1,0.2-0.2,0.4-0.3,0.6s-0.1,0.4-0.2,0.6h7.4c1.4,0,2.6,0.5,3.6,1.5
		C109.9,68,110.5,69.2,110.5,70.6z"/>
</g>
<g>
	<path fill="#60AE3C" d="M147.8,51.1v39.4h-6.5V51.1H147.8z"/>
	<path fill="#60AE3C" d="M164.7,55.3c0,0.6-0.1,1.1-0.3,1.6c-0.2,0.5-0.5,0.9-0.9,1.3c-0.4,0.4-0.8,0.7-1.3,0.9s-1.1,0.3-1.6,0.3
		c-0.6,0-1.1-0.1-1.6-0.3s-0.9-0.5-1.3-0.9c-0.4-0.4-0.7-0.8-0.9-1.3c-0.2-0.5-0.3-1-0.3-1.6c0-0.6,0.1-1.1,0.3-1.6
		c0.2-0.5,0.5-1,0.9-1.3c0.4-0.4,0.8-0.7,1.3-0.9s1-0.3,1.6-0.3c0.6,0,1.1,0.1,1.6,0.3s1,0.5,1.3,0.9c0.4,0.4,0.7,0.8,0.9,1.3
		C164.6,54.2,164.7,54.8,164.7,55.3z M163.8,63.3v27.2h-6.6V63.3H163.8z"/>
	<path fill="#60AE3C" d="M179.6,51.1v22.6h1.2c0.4,0,0.8-0.1,1-0.2c0.3-0.1,0.5-0.3,0.8-0.7l6.8-8.3c0.3-0.4,0.6-0.7,0.9-0.8
		s0.8-0.3,1.3-0.3h6l-8.5,10.1c-0.6,0.8-1.3,1.4-2,1.8c0.4,0.3,0.7,0.6,1,0.9c0.3,0.4,0.6,0.7,0.8,1.1l9.1,13.2h-5.9
		c-0.5,0-1-0.1-1.3-0.3s-0.7-0.5-0.9-0.9L183.1,79c-0.2-0.4-0.5-0.7-0.8-0.8c-0.3-0.1-0.7-0.2-1.2-0.2h-1.5v12.5h-6.5V51.1H179.6z"
		/>
	<path fill="#60AE3C" d="M214.3,62.8c1.7,0,3.3,0.3,4.7,0.8c1.4,0.5,2.7,1.3,3.7,2.4c1,1.1,1.9,2.3,2.5,3.9c0.6,1.5,0.9,3.3,0.9,5.2
		c0,1-0.1,1.7-0.3,2c-0.2,0.3-0.6,0.5-1.2,0.5h-16.8c0.1,1.4,0.4,2.6,0.7,3.6c0.4,1,0.9,1.9,1.5,2.5c0.6,0.7,1.4,1.2,2.3,1.5
		c0.9,0.3,1.8,0.5,2.9,0.5c1.1,0,2-0.1,2.7-0.4c0.8-0.2,1.4-0.5,2-0.8c0.6-0.3,1.1-0.6,1.5-0.8c0.4-0.2,0.9-0.4,1.3-0.4
		c0.5,0,1,0.2,1.2,0.6l1.9,2.4c-0.7,0.8-1.5,1.6-2.4,2.1c-0.9,0.6-1.8,1-2.8,1.4c-1,0.3-2,0.6-3,0.7c-1,0.1-2,0.2-3,0.2
		c-1.9,0-3.6-0.3-5.3-0.9c-1.6-0.6-3-1.6-4.2-2.8c-1.2-1.2-2.1-2.7-2.8-4.6c-0.7-1.8-1-3.9-1-6.3c0-1.9,0.3-3.6,0.9-5.2
		c0.6-1.6,1.5-3.1,2.6-4.3c1.1-1.2,2.5-2.2,4.1-2.9C210.4,63.2,212.3,62.8,214.3,62.8z M214.4,67.5c-1.9,0-3.4,0.5-4.5,1.6
		c-1.1,1.1-1.8,2.6-2.1,4.6h12.3c0-0.8-0.1-1.6-0.4-2.4c-0.2-0.8-0.6-1.4-1.1-2s-1.1-1-1.8-1.3C216.2,67.7,215.4,67.5,214.4,67.5z"
		/>
</g>
</svg>
