<?xml version="1.0" encoding="UTF-8" standalone="no"?>
<!-- Created with Inkscape (http://www.inkscape.org/) -->

<svg
   xmlns:dc="http://purl.org/dc/elements/1.1/"
   xmlns:cc="http://creativecommons.org/ns#"
   xmlns:rdf="http://www.w3.org/1999/02/22-rdf-syntax-ns#"
   xmlns:svg="http://www.w3.org/2000/svg"
   xmlns="http://www.w3.org/2000/svg"
   xmlns:sodipodi="http://sodipodi.sourceforge.net/DTD/sodipodi-0.dtd"
   xmlns:inkscape="http://www.inkscape.org/namespaces/inkscape"
   width="93"
   height="60"
   id="svg3438"
   version="1.1"
   inkscape:version="0.48.5 r10040"
   sodipodi:docname="logo.svg">
  <defs
     id="defs3440" />
  <sodipodi:namedview
     id="base"
     pagecolor="#ffffff"
     bordercolor="#666666"
     borderopacity="1.0"
     inkscape:pageopacity="0"
     inkscape:pageshadow="2"
     inkscape:zoom="5.6"
     inkscape:cx="36.227618"
     inkscape:cy="26.580718"
     inkscape:document-units="px"
     inkscape:current-layer="layer1"
     showgrid="false"
     fit-margin-top="0"
     fit-margin-left="0"
     fit-margin-right="0"
     fit-margin-bottom="0" />
  <metadata
     id="metadata3443">
    <rdf:RDF>
      <cc:Work
         rdf:about="">
        <dc:format>image/svg+xml</dc:format>
        <dc:type
           rdf:resource="http://purl.org/dc/dcmitype/StillImage" />
        <dc:title />
      </cc:Work>
    </rdf:RDF>
  </metadata>
  <g
     inkscape:label="Layer 1"
     inkscape:groupmode="layer"
     id="layer1"
     transform="translate(-328.26356,-502.52823)">
    <g
       id="g3050"
       transform="matrix(0.99494099,0,0,0.9944955,115.39638,37.20515)">
      <path
         inkscape:connector-curvature="0"
         d="m 291.91139,494.67162 c 0.56379,-0.74254 1.19633,-1.54009 1.89763,-2.39267 0.70129,-0.85254 1.63636,-1.83572 2.80519,-2.94956 1.18257,-1.11381 2.14513,-1.91136 2.8877,-2.39267 0.75628,-0.495 1.46445,-0.74252 2.1245,-0.74253 0.16501,1e-5 0.35064,0.0344 0.55693,0.10312 0.20623,0.0549 0.39875,0.16503 0.57753,0.33001 0.19249,0.16504 0.35063,0.3988 0.47443,0.7013 0.12376,0.28879 0.18559,0.66694 0.18563,1.13445 -4e-5,0.93509 -0.13066,1.84953 -0.3919,2.74331 -0.26129,0.88008 -0.75633,1.95265 -1.4851,3.21772 -0.72881,1.26509 -1.22385,2.35829 -1.48511,3.2796 -0.24754,0.92132 -0.37128,1.88387 -0.37127,2.88768 -10e-6,0.55004 0.0826,0.99008 0.24752,1.3201 0.16498,0.33002 0.37812,0.49503 0.6394,0.49502 0.33002,1e-5 0.68066,-0.0688 1.05194,-0.20626 0.37128,-0.1375 0.74254,-0.31626 1.11384,-0.53628 0.37125,-0.22001 0.73566,-0.46753 1.09319,-0.74255 0.3575,-0.28876 0.6944,-0.58441 1.0107,-0.88694 0.75628,-0.70128 1.49883,-1.49883 2.22765,-2.39266 l 0.35064,5.48662 c -0.24755,0.19252 -0.56381,0.43317 -0.94881,0.72192 -0.3713,0.28878 -0.7907,0.59818 -1.2582,0.92819 -0.45381,0.31627 -0.94885,0.63942 -1.48511,0.96945 -0.5363,0.33001 -1.07947,0.62565 -1.62948,0.88693 -0.53631,0.2475 -1.07947,0.45377 -1.62949,0.61879 -0.5363,0.16501 -1.05196,0.2475 -1.54698,0.2475 -0.75631,0 -1.41636,-0.19937 -1.98014,-0.59815 -0.55003,-0.41252 -1.00382,-0.92819 -1.36133,-1.54698 -0.35753,-0.63254 -0.62567,-1.32008 -0.80442,-2.06265 -0.17878,-0.74253 -0.26816,-1.44384 -0.26815,-2.10387 -10e-6,-0.44003 0.0549,-0.92819 0.16502,-1.46447 0.12376,-0.55005 0.26813,-1.10007 0.43314,-1.65012 0.17875,-0.55003 0.37126,-1.08632 0.57754,-1.60885 0.22001,-0.52254 0.41939,-0.99007 0.59817,-1.40261 0.19249,-0.41251 0.35751,-0.74941 0.49504,-1.01068 0.13748,-0.26127 0.22686,-0.41252 0.26814,-0.4538 l -0.43316,-0.0618 c -0.23378,0.15127 -0.63256,0.53629 -1.19632,1.15507 -0.55006,0.61881 -1.17573,1.40261 -1.87701,2.35141 -0.70131,0.93506 -1.4301,1.99389 -2.1864,3.17646 -0.74255,1.16883 -1.41635,2.37891 -2.02137,3.63024 -0.30253,0.61879 -0.55006,1.16196 -0.74256,1.62949 -0.19252,0.45377 -0.38504,0.83193 -0.57754,1.13445 -0.17877,0.28877 -0.37816,0.50878 -0.59816,0.66004 -0.22002,0.15125 -0.50192,0.22689 -0.84569,0.22689 -0.45378,0 -0.8113,-0.13063 -1.07256,-0.3919 -0.26128,-0.26127 -0.46066,-0.60504 -0.59817,-1.03132 -0.13751,-0.44003 -0.22689,-0.93505 -0.26815,-1.48509 -0.0412,-0.55005 -0.0619,-1.11383 -0.0619,-1.69137 0,-0.9213 0.006,-2.12451 0.0207,-3.60962 0.0274,-1.49883 0.0963,-3.15582 0.20626,-4.97094 0.11002,-1.81512 0.26814,-3.72649 0.47441,-5.73415 0.20626,-2.00761 0.49502,-3.98774 0.86631,-5.9404 0.38502,-1.96635 0.85942,-3.83646 1.42321,-5.61037 0.57754,-1.78759 1.27196,-3.3552 2.08327,-4.70281 0.82504,-1.3613 1.7876,-2.44075 2.8877,-3.23834 1.10004,-0.79752 2.36514,-1.1963 3.79524,-1.19634 0.74254,4e-5 1.34758,0.11003 1.81513,0.33002 0.48126,0.22006 0.85941,0.52946 1.13445,0.92819 0.28874,0.39882 0.48814,0.8801 0.59816,1.44385 0.11003,0.55008 0.16499,1.16887 0.16501,1.85637 -2e-5,1.0176 -0.1444,2.14517 -0.43315,3.38273 -0.28878,1.23761 -0.67382,2.52332 -1.15508,3.85712 -0.46755,1.33387 -1.00383,2.68835 -1.60886,4.06341 -0.60505,1.36136 -1.22384,2.68832 -1.85637,3.98089 -0.63255,1.27885 -1.25822,2.48893 -1.877,3.63025 -0.60505,1.14134 -1.14133,2.14515 -1.60886,3.01144 l 0.41252,0.28877 m 1.83575,-12.7471 c 0.8113,-2.10386 1.39571,-3.87773 1.75325,-5.32161 0.37126,-1.44382 0.5569,-2.5095 0.55691,-3.19709 -1e-5,-1.04502 -0.13752,-1.56756 -0.41253,-1.5676 -0.35753,4e-5 -0.88694,0.58446 -1.58822,1.75325 -0.70131,1.16885 -1.52637,2.86709 -2.47518,5.09471 -0.23376,0.75634 -0.45378,1.54014 -0.66004,2.35141 -0.19251,0.81133 -0.37127,1.62262 -0.53628,2.4339 -0.15127,0.79759 -0.29566,1.58826 -0.43316,2.37204 -0.12375,0.77007 -0.23377,1.50575 -0.33002,2.20703 -0.23377,1.63638 -0.41254,3.23836 -0.53629,4.80593 0.37128,-0.86628 0.77692,-1.80821 1.21696,-2.8258 0.44003,-1.01754 0.87317,-2.02137 1.29946,-3.01145 0.42628,-1.0038 0.82505,-1.94573 1.19634,-2.82581 0.38501,-0.89379 0.70127,-1.65009 0.9488,-2.26891 m -18.17187,25.57676 c -1.26509,0 -2.37892,-0.23376 -3.34147,-0.70128 -0.94883,-0.46755 -1.74638,-1.09321 -2.39267,-1.87702 -0.64629,-0.78379 -1.13445,-1.69135 -1.46447,-2.72268 -0.33003,-1.03131 -0.49503,-2.10388 -0.49503,-3.21771 0,-0.79755 0.13751,-1.75323 0.41253,-2.86708 0.27501,-1.1138 0.57066,-2.08324 0.88693,-2.90831 0.33002,-0.83878 0.7288,-1.63633 1.19633,-2.39266 0.48128,-0.75628 1.03131,-1.41632 1.65011,-1.98013 0.63253,-0.57752 1.33384,-1.03131 2.10389,-1.36134 0.77005,-0.34375 1.61573,-0.51563 2.53705,-0.51566 0.78379,3e-5 1.50571,0.12376 2.16576,0.37128 0.67379,0.23378 1.24446,0.56379 1.71199,0.99006 0.48128,0.4263 0.85254,0.93508 1.11383,1.52636 0.275,0.57755 0.41252,1.20321 0.41253,1.87699 -10e-6,0.46756 -0.0618,0.92821 -0.18564,1.38197 -0.12376,0.45379 -0.36442,0.99009 -0.72193,1.60885 -0.35754,0.60505 -0.70818,1.01758 -1.05194,1.23758 -0.33003,0.22004 -0.70819,0.33005 -1.13445,0.33003 -0.66006,2e-5 -1.08632,-0.17187 -1.27885,-0.51565 -0.31627,-0.53629 -0.41252,-1.01069 -0.28875,-1.42323 0.0412,-0.22 0.165,-0.72879 0.37127,-1.52635 0.0275,-0.11003 0.0344,-0.3575 0.0206,-0.74256 0,-0.33 -0.0344,-0.605 -0.10312,-0.82504 -0.0689,-0.22 -0.22003,-0.33001 -0.45378,-0.33003 -0.5638,2e-5 -1.04508,0.13753 -1.44384,0.41254 -0.39879,0.26127 -0.74256,0.61192 -1.03133,1.05195 -0.27502,0.42629 -0.55004,1.03819 -0.82505,1.83574 -0.27502,0.78381 -0.47441,1.44386 -0.59817,1.98013 -0.11003,0.53628 -0.17876,1.05195 -0.20626,1.54697 -0.0275,0.4813 -0.0412,0.88695 -0.0412,1.21696 0,0.49504 0.0412,1.0107 0.12376,1.54698 0.0963,0.5363 0.27502,1.03132 0.53629,1.4851 0.275,0.44004 0.62566,0.81131 1.05195,1.11382 0.42625,0.28878 0.9763,0.43316 1.65009,0.43316 0.66005,0 1.38883,-0.19938 2.18641,-0.59817 0.79753,-0.41253 1.5951,-0.92818 2.39266,-1.54697 0.81129,-0.61879 1.58134,-1.29946 2.31015,-2.04201 0.72878,-0.74255 1.35445,-1.44384 1.87701,-2.1039 l 1.42321,2.39267 c -1.03134,1.47134 -2.14517,2.78455 -3.34147,3.93963 -0.5088,0.49504 -1.06572,0.97632 -1.67075,1.44384 -0.5913,0.46754 -1.21696,0.88694 -1.87699,1.25822 -0.64631,0.35752 -1.32697,0.65316 -2.04201,0.88694 -0.70131,0.22001 -1.41635,0.33001 -2.14515,0.33001 m -4.80606,-4.62031 c -1.32012,0.77006 -2.49581,1.44386 -3.52712,2.02139 -1.03134,0.57754 -1.95264,1.05882 -2.76392,1.44385 -0.79759,0.38502 -1.51262,0.67379 -2.14516,0.8663 -0.61881,0.19251 -1.18258,0.28877 -1.69135,0.28877 -1.04508,0 -1.9664,-0.31626 -2.76395,-0.94881 -0.79755,-0.63254 -1.46447,-1.5401 -2.00075,-2.72269 -0.5363,-1.19632 -0.94194,-2.64017 -1.21696,-4.33153 -0.26128,-1.69136 -0.3919,-3.59585 -0.3919,-5.7135 0,-0.82504 0.0344,-1.70511 0.10311,-2.64018 0.0686,-0.93505 0.16502,-1.86325 0.28877,-2.78457 -0.41253,-0.0549 -0.73568,-0.10312 -0.96944,-0.14438 -0.22002,-0.0549 -0.46066,-0.10312 -0.72193,-0.14439 -0.2475,-0.0549 -0.57066,-0.11002 -0.96942,-0.16501 -0.38504,-0.0549 -0.94881,-0.12376 -1.69137,-0.20626 -0.33002,-0.0412 -0.58443,-0.11683 -0.76319,-0.22689 -0.17875,-0.12377 -0.30939,-0.26125 -0.39189,-0.41253 -0.0826,-0.16498 -0.13063,-0.33 -0.14438,-0.49504 -0.0137,-0.17874 -0.0206,-0.33 -0.0206,-0.45377 0,-0.275 0.13751,-0.48127 0.41251,-0.61879 0.26128,-0.15123 0.60504,-0.26125 1.03132,-0.33003 0.41254,-0.0686 0.86632,-0.10312 1.36135,-0.10312 0.50878,-0.0137 0.99006,-0.0137 1.44384,0 0.46753,0.0137 0.88006,0.0275 1.23758,0.0412 0.37129,2e-5 0.62568,-0.0137 0.76319,-0.0412 0.37126,-1.85634 0.8388,-3.65083 1.40259,-5.38347 0.57753,-1.74635 1.21694,-3.29331 1.91825,-4.64094 0.71503,-1.36131 1.49197,-2.44763 2.33078,-3.25898 0.83879,-0.825 1.71885,-1.23753 2.64018,-1.23758 0.59128,5e-5 1.12755,0.16506 1.60886,0.49505 0.49501,0.33005 0.91442,0.77007 1.2582,1.32007 0.34376,0.55008 0.60503,1.19637 0.7838,1.93889 0.1925,0.72883 0.28876,1.492 0.28878,2.28953 -2e-5,0.67383 -0.0963,1.38886 -0.28878,2.14514 -0.19252,0.74258 -0.4538,1.50576 -0.7838,2.28952 -0.33003,0.77009 -0.72193,1.55389 -1.17571,2.35141 -0.44003,0.79758 -0.90756,1.58827 -1.40259,2.37204 0.12377,0.0137 0.33002,0.0206 0.61879,0.0206 0.28877,10e-6 0.61878,0.0137 0.99006,0.0412 0.38502,0.0137 0.79754,0.0344 1.2376,0.0619 0.44002,0.0137 0.86629,0.0274 1.27883,0.0412 0.41251,0.0137 0.79754,0.0275 1.15507,0.0412 0.35751,0.0137 0.65316,0.0275 0.88695,0.0412 0.27499,0.0137 0.47438,0.15129 0.59816,0.41254 0.12376,0.26129 0.18562,0.5913 0.18566,0.99006 -4e-5,0.48131 -0.13754,0.8732 -0.41254,1.17569 -0.27503,0.30255 -0.57756,0.45381 -0.90756,0.45379 l -7.92054,0 c -0.39878,0.55006 -0.80444,1.09321 -1.21696,1.62949 -0.39877,0.52255 -0.77006,0.99694 -1.11383,1.42321 -0.0549,0.85258 -0.10312,1.69138 -0.14437,2.51642 -0.0137,0.35754 -0.0275,0.72881 -0.0412,1.11383 -0.0137,0.37128 -0.0274,0.74257 -0.0412,1.11383 -0.0137,0.37128 -0.0274,0.72881 -0.0412,1.07257 0,0.34378 0,0.66005 0,0.94881 0,0.74256 0.0686,1.36822 0.20626,1.87701 0.1375,0.50878 0.3369,0.92818 0.59817,1.2582 0.26126,0.31628 0.57752,0.55004 0.94882,0.7013 0.38501,0.13751 0.81129,0.20627 1.27883,0.20626 0.28876,10e-6 0.64628,-0.0686 1.07257,-0.20626 0.44002,-0.13751 0.91442,-0.32315 1.42322,-0.55691 0.52253,-0.24752 1.06569,-0.53628 1.62949,-0.86632 0.57752,-0.33001 1.14131,-0.68753 1.69137,-1.07257 0.56376,-0.39877 1.10004,-0.81129 1.60884,-1.23758 0.50877,-0.44002 0.96943,-0.88692 1.38198,-1.34071 l 0,5.28035 m -6.60044,-26.113 c -1e-5,-0.15122 -0.0137,-0.31624 -0.0412,-0.49502 -0.0137,-0.19249 -0.0551,-0.37125 -0.12377,-0.5363 -0.0688,-0.16497 -0.17877,-0.30248 -0.33002,-0.41252 -0.13753,-0.11002 -0.33691,-0.16499 -0.59817,-0.16501 -0.35753,2e-5 -0.72194,0.3163 -1.0932,0.94881 -0.35752,0.63257 -0.70818,1.44388 -1.05194,2.4339 -0.33002,0.97636 -0.64629,2.05581 -0.9488,3.23836 -0.28878,1.1826 -0.55692,2.3308 -0.80444,3.4446 0.20625,0.0275 0.41252,0.0551 0.6188,0.0826 0.20624,0.0137 0.41938,0.0344 0.63941,0.0619 0.41251,-0.70127 0.83879,-1.45757 1.27883,-2.2689 0.45378,-0.82504 0.85942,-1.62945 1.21696,-2.41328 0.35751,-0.79752 0.65316,-1.54007 0.88694,-2.22765 0.23374,-0.68752 0.35062,-1.25131 0.35063,-1.69137 m -8.59514,25.67987 c -0.31631,0.44003 -0.74259,0.95569 -1.27885,1.54697 -0.52257,0.59129 -1.11385,1.15509 -1.77386,1.69137 -0.66007,0.53629 -1.36824,0.99007 -2.12453,1.36134 -0.75631,0.37128 -1.51262,0.55691 -2.26889,0.55691 -0.90757,0 -1.66388,-0.28877 -2.26891,-0.8663 -0.60505,-0.59129 -1.12758,-1.44386 -1.5676,-2.55767 -0.33003,0.38503 -0.7357,0.77692 -1.21695,1.17569 -0.4813,0.39879 -1.01072,0.76319 -1.58824,1.09321 -0.56379,0.31627 -1.15508,0.57753 -1.77387,0.7838 -0.6188,0.20626 -1.23759,0.30939 -1.85638,0.30939 -0.66004,0 -1.30633,-0.13063 -1.93887,-0.3919 -0.61879,-0.275 -1.16884,-0.66004 -1.65011,-1.15507 -0.48129,-0.5088 -0.86632,-1.1207 -1.15507,-1.83576 -0.28878,-0.72879 -0.43317,-1.54696 -0.43317,-2.45453 0,-1.03132 0.14439,-2.09012 0.43317,-3.17647 0.28875,-1.08631 0.73566,-2.262 1.3407,-3.5271 0.60504,-1.26508 1.25133,-2.35827 1.93888,-3.2796 0.7013,-0.92129 1.46447,-1.72572 2.28954,-2.41329 0.82504,-0.68752 1.69136,-1.23068 2.59891,-1.62948 0.9213,-0.4125 1.85637,-0.61876 2.8052,-0.61879 0.31624,3e-5 0.56377,0.0619 0.74253,0.18563 0.17875,0.12377 0.32315,0.26818 0.43317,0.43316 0.12376,0.15129 0.24063,0.30253 0.35066,0.45378 0.11002,0.15129 0.24749,0.26128 0.41252,0.33002 0.16499,0.0688 0.33,0.11696 0.49502,0.1444 0.17875,0.0137 0.35751,0.0206 0.53629,0.0206 0.15126,3e-5 0.3025,3e-5 0.45378,0 0.165,-0.0137 0.32313,-0.0205 0.4744,-0.0206 0.20625,10e-6 0.39877,0.0206 0.57754,0.0619 0.17876,0.0413 0.33688,0.13066 0.47442,0.26814 0.13749,0.13753 0.24063,0.33004 0.30939,0.57755 0.0826,0.24753 0.12376,0.58442 0.12376,1.01069 -1e-5,0.66006 -0.0688,1.39574 -0.20626,2.20703 -0.13753,0.79756 -0.2888,1.62261 -0.45378,2.47516 -0.16504,0.83881 -0.36441,1.7945 -0.59817,2.86707 -0.23379,1.07257 -0.35067,1.987 -0.35064,2.74331 -3e-5,0.64628 0.0549,1.15508 0.16501,1.52635 0.12377,0.35752 0.37813,0.53628 0.76317,0.53627 0.28875,1e-5 0.59128,-0.0686 0.90756,-0.20626 0.31626,-0.15125 0.63252,-0.34376 0.94882,-0.57754 0.33,-0.23375 0.65314,-0.49502 0.96943,-0.7838 0.33001,-0.30251 0.6394,-0.6119 0.92818,-0.92818 0.67378,-0.74254 1.35445,-1.58135 2.04202,-2.51642 l 0.99008,4.57906 m -17.61495,-1.62948 c 0,0.34377 0.0207,0.68067 0.0618,1.01068 0.0549,0.31627 0.14439,0.60505 0.26815,0.86632 0.12375,0.24752 0.28876,0.45379 0.49504,0.61879 0.20624,0.15126 0.46752,0.22689 0.7838,0.22689 0.50877,0 0.96943,-0.22002 1.38195,-0.66006 0.41253,-0.44003 0.77005,-0.96942 1.07258,-1.58821 0.30251,-0.61879 0.54315,-1.25822 0.72192,-1.91826 0.1925,-0.66005 0.31626,-1.21007 0.37128,-1.65011 l 1.54698,-6.74483 c -0.56379,2e-5 -1.11384,0.14441 -1.65011,0.43315 -0.5363,0.27504 -1.04508,0.65319 -1.52635,1.13445 -0.46754,0.4813 -0.9007,1.03134 -1.29946,1.65012 -0.39879,0.6188 -0.79069,1.38197 -1.17571,2.28952 -0.38503,0.90758 -0.66006,1.70513 -0.82506,2.39267 -0.15126,0.68755 -0.22689,1.33384 -0.22689,1.93888 m -24.0091,2.37201 c 0,-0.90755 0.0549,-1.95262 0.16501,-3.13521 0.11003,-1.19631 0.24752,-2.50266 0.41253,-3.91901 0.16501,-1.43008 0.35065,-2.7158 0.55692,-3.85714 0.20625,-1.1413 0.40564,-2.11762 0.59815,-2.92894 0.15126,-0.63251 0.44003,-1.16193 0.86632,-1.58822 0.44003,-0.42627 1.03132,-0.63942 1.77386,-0.63943 0.74254,1e-5 1.2582,0.22691 1.54698,0.68067 0.28876,0.4538 0.43314,1.05884 0.43315,1.81512 -1e-5,0.2063 -0.0206,0.48819 -0.0619,0.84569 -0.0412,0.34378 -0.0963,0.72881 -0.16502,1.15507 -0.0549,0.41254 -0.11682,0.84569 -0.18562,1.29946 -0.0688,0.44005 -0.13751,0.94882 -0.20627,1.52635 -0.0551,0.56381 -0.10312,0.99009 -0.14438,1.27884 -0.0412,0.27503 -0.0619,0.46068 -0.0619,0.55691 l 0.41253,0 c 0.0826,-0.15124 0.21312,-0.39187 0.3919,-0.72192 0.17875,-0.34376 0.38501,-0.83191 0.61879,-1.46447 0.23375,-0.63253 0.48125,-1.18945 0.74254,-1.67073 0.27501,-0.49503 0.5294,-0.96256 0.76318,-1.40261 0.23375,-0.45376 0.44689,-0.85253 0.63942,-1.19633 0.1925,-0.34375 0.33688,-0.59814 0.43316,-0.76316 0.44,-0.74253 0.94191,-1.25132 1.50572,-1.52636 0.56378,-0.275 1.18943,-0.41252 1.877,-0.41253 0.68752,1e-5 1.23069,0.28879 1.62948,0.86631 0.41251,0.57756 0.61877,1.37511 0.61879,2.39266 -2e-5,0.15129 -0.0344,0.40568 -0.10312,0.76318 -0.0549,0.35753 -0.13064,0.78381 -0.22689,1.27884 -0.0963,0.49503 -0.20627,1.13445 -0.33001,1.91825 -0.11003,0.78381 -0.21316,1.48511 -0.30939,2.10389 -0.0963,0.6188 -0.1788,1.23072 -0.24753,1.83574 -0.0549,0.60506 -0.0826,1.16196 -0.0826,1.67074 -2e-5,0.85257 0.10312,1.55386 0.30939,2.10389 0.21999,0.55004 0.55689,0.82506 1.01069,0.82505 0.16499,10e-6 0.39875,-0.0619 0.7013,-0.18563 0.45375,-0.16502 0.74253,-0.30939 0.8663,-0.43316 0.60502,-0.46752 0.9213,-0.69441 0.94882,-0.68067 0.0412,0.0137 0.50189,-0.26126 1.38196,-0.82505 1.10006,-0.70128 2.41328,-1.56073 3.93964,-2.57829 l -0.0206,4.62031 -1.03133,0.7838 c -0.0826,0.0688 -0.72882,0.42627 -1.93889,1.07257 -1.74637,0.93506 -2.83957,1.49884 -3.27958,1.69136 -1.0726,0.48129 -1.73951,0.75629 -2.00076,0.82506 -0.68757,0.22001 -1.40949,0.33001 -2.16577,0.33001 -0.75633,0 -1.39573,-0.54316 -1.91825,-1.62948 -0.50881,-1.10007 -0.76319,-2.70205 -0.76319,-4.80595 0,-0.82505 0.0549,-1.71198 0.16501,-2.66079 0.11003,-0.96256 0.24752,-1.99388 0.41253,-3.09396 l -0.33001,0 -5.40411,10.72571 c -0.28878,0.57754 -0.59818,0.96256 -0.92819,1.15508 -0.34379,0.20626 -0.74257,0.30939 -1.19633,0.30939 -0.56379,0 -1.01757,-0.11682 -1.36135,-0.35065 -0.34377,-0.2475 -0.61192,-0.57065 -0.80442,-0.96944 -0.17877,-0.41252 -0.30253,-0.87317 -0.37127,-1.38196 -0.0549,-0.52253 -0.0826,-1.05882 -0.0826,-1.60886"
         style="font-size:32.90330505px;font-style:normal;font-variant:normal;font-weight:normal;font-stretch:normal;text-align:start;line-height:125%;writing-mode:lr-tb;text-anchor:start;fill:#ffffff;fill-opacity:1;stroke:none;font-family:Pacifico;-inkscape-font-specification:Pacifico"
         id="path5242" />
      <g
         transform="matrix(1.7483008,0,0,1.7483008,-222.26783,-373.3935)"
         id="g3036">
        <path
           id="path3533"
           style="font-size:9.64264584px;font-style:normal;font-variant:normal;font-weight:normal;font-stretch:normal;text-align:start;line-height:129.99999523%;writing-mode:lr-tb;text-anchor:start;fill:#ffffff;fill-opacity:1;stroke:none;font-family:Enzo OT;-inkscape-font-specification:Enzo OT"
           d="m 267.73816,515.59888 0,-2.78673 c 0,-1.37889 -0.36642,-2.24673 -1.59104,-2.24673 -0.85819,0 -1.3789,0.30856 -1.73567,1.12819 -0.135,-0.64606 -0.60749,-1.12819 -1.4464,-1.12819 -0.87748,0 -1.28247,0.37606 -1.61996,0.9739 -0.0193,-0.32785 -0.0772,-0.63641 -0.17357,-0.89676 l -0.33749,0.0578 c 0.10606,0.38571 0.15428,0.83891 0.15428,1.26319 l 0,3.63528 0.3857,0 0,-3.50028 c 0.36642,-0.75213 0.71356,-1.18605 1.53318,-1.18605 0.82927,0 1.26319,0.48213 1.26319,1.58139 l 0,3.10494 0.38571,0 0,-3.50028 c 0.30856,-0.76177 0.71355,-1.18605 1.53318,-1.18605 1.1089,0 1.26318,0.82927 1.26318,2.01531 l 0,2.67102 0.38571,0 m -10.01148,0.11576 c 1.47533,0 2.05389,-0.81963 2.05389,-2.57459 0,-1.75496 -0.57856,-2.57458 -2.05389,-2.57458 -1.47532,0 -2.05388,0.81962 -2.05388,2.57458 0,1.75496 0.57856,2.57459 2.05388,2.57459 m 0,-0.34714 c -1.38854,0 -1.66817,-0.88712 -1.66817,-2.22745 0,-1.34032 0.27963,-2.22745 1.66817,-2.22745 1.38854,0 1.66818,0.88713 1.66818,2.22745 0,1.34033 -0.27964,2.22745 -1.66818,2.22745 m -4.20615,0.23143 0,-3.4135 c 0.36642,-0.7232 0.7232,-1.13783 1.54282,-1.18605 l -0.0482,-0.42427 c -0.78105,0.0868 -1.21497,0.4532 -1.52354,1.07033 -0.0193,-0.33749 -0.0771,-0.74248 -0.17356,-1.00283 l -0.3375,0.0578 c 0.10607,0.38571 0.15428,0.83891 0.15428,1.26319 l 0,3.63528 0.38571,0 m -2.72873,5e-5 0,-4.5224 1.08962,0 0.0482,-0.35678 -1.15711,0 c -0.0579,-0.27 -0.0964,-0.54963 -0.0964,-0.7907 0,-0.76177 0.37606,-1.01248 0.87748,-1.01248 0.17357,0 0.36642,0.0193 0.53999,0.0771 l 0.0675,-0.35677 c -0.21214,-0.0579 -0.41464,-0.0771 -0.59785,-0.0771 -0.95462,0 -1.27282,0.6557 -1.27282,1.37889 0,0.26036 0.0579,0.53035 0.0964,0.78106 l -0.87748,0 0,0.35678 0.89677,0 0,4.5224 0.3857,0" />
        <g
           transform="matrix(0.02498023,0,0,-0.02498023,270.50483,515.73955)"
           inkscape:label="ink_ext_XXXXXX"
           id="g5277">
          <g
             transform="scale(0.1,0.1)"
             id="g5279">
            <path
               id="path5281"
               style="fill:#ffffff;fill-opacity:1;fill-rule:nonzero;stroke:none"
               d="m 834.609,455.039 c 288.281,0.422 400.431,146.672 399.731,599.721 -0.59,366.88 -53.32,591.41 -334.141,590.98 -172.23,-0.28 -269.461,-86.45 -351.609,-236.41 L 550,495.859 c 97.379,-29.847 198.48,-40.937 284.609,-40.82 z M 0,2685.23 l 546.52,68.28 1.449,-936.05 c 97.07,191.13 272.929,270 538.751,270.43 430.55,0.66 696.8,-272.27 697.93,-1032.31 C 1785.86,276.828 1438.05,21.6406 876.48,20.7812 565.699,20.3086 281.09,53.5898 3.91016,139.289 L 0,2685.23"
               inkscape:connector-curvature="0" />
            <path
               id="path5283"
               style="fill:#ffffff;fill-opacity:1;fill-rule:nonzero;stroke:none"
               d="m 2160.86,67.7305 -1.88,1220.5495 c -0.35,228.36 -4.49,467.97 -53.47,692.58 l 426.64,105.46 c 45.08,-108.51 86.48,-231.95 116.6,-348 100.78,183.59 265.35,322.38 572.3,352.85 l 72,-569.03 -56.14,-0.11 c -269.57,-0.39 -422.96,-83.01 -531.21,-292.85 l 1.76,-1160.6292 -546.6,-0.8203"
               inkscape:connector-curvature="0" />
            <path
               id="path5285"
               style="fill:#ffffff;fill-opacity:1;fill-rule:nonzero;stroke:none"
               d="m 4697.66,1250.93 c -7.93,292 -116.64,404.18 -318.87,403.87 -228.4,-0.35 -347.97,-142.73 -347.5,-453.55 l 0.08,-56.18 666.29,105.86 z M 4437.46,26.2109 C 3834.65,25.3086 3489.8,279.41 3488.63,1050.7 c -1.21,797.46 350.39,1041.41 889.49,1042.23 531.65,0.78 850.2,-200.94 851.68,-1166.84 L 4054.38,800.66 c 34.06,-239.57 146.56,-332.93 374.92,-332.621 205.9,0.352 389.29,41.762 580.11,154.383 L 5174.73,244.531 C 4961.52,98.2383 4725.74,26.6406 4437.46,26.2109"
               inkscape:connector-curvature="0" />
            <path
               id="path5287"
               style="fill:#ffffff;fill-opacity:1;fill-rule:nonzero;stroke:none"
               d="m 5646.6,57.1094 c 34.69,178.2426 23.2,440.0706 11.49,641.9926 l -77.43,1334.368 549.42,-31.91 71.56,-1233.521 c 14.73,-254.098 17.42,-493.98 -42.97,-681.2109 L 5646.6,57.1094 z M 5840.51,2273.55 c -201.84,-11.72 -326.02,59.81 -337.5,257.97 -11.29,194.3 103.55,283.48 305.43,295.19 201.83,11.72 326.21,-63.59 337.5,-257.89 11.48,-198.12 -103.56,-283.59 -305.43,-295.27"
               inkscape:connector-curvature="0" />
            <path
               id="path5289"
               style="fill:#ffffff;fill-opacity:1;fill-rule:nonzero;stroke:none"
               d="m 7462.38,465.191 c 288.28,0.43 400.39,146.68 399.69,599.689 -0.55,366.91 -53.32,591.44 -334.14,591.01 -172.19,-0.27 -269.45,-86.48 -351.6,-236.4 l 1.44,-913.521 c 97.39,-29.797 198.48,-40.899 284.61,-40.778 z m -834.65,2230.159 546.57,68.28 1.44,-936.02 c 97.03,191.14 272.89,270 538.75,270.39 430.51,0.67 696.76,-272.26 697.93,-1032.26 C 8413.63,286.949 8065.78,31.7891 7504.22,30.8906 7193.48,30.4297 6908.83,63.7109 6631.64,149.449 l -3.91,2545.901"
               inkscape:connector-curvature="0" />
            <path
               id="path5291"
               style="fill:#ffffff;fill-opacity:1;fill-rule:nonzero;stroke:none"
               d="m 10048.8,1068.24 c -0.5,370.66 -57.08,595.15 -386.5,594.65 -329.49,-0.51 -385.31,-225.16 -384.76,-595.82 0.58,-370.672 57.11,-595.281 386.56,-594.769 329.45,0.508 385.3,225.269 384.7,595.939 z m -1321.65,-2.03 c -1.06,703.83 264.26,1033.79 934.45,1034.8 670.2,1.02 936.6,-328.08 937.6,-1031.91 C 10600.3,365.148 10335,35.2305 9664.77,34.2109 8994.57,33.1992 8728.24,362.301 8727.15,1066.21"
               inkscape:connector-curvature="0" />
            <path
               id="path5293"
               style="fill:#ffffff;fill-opacity:1;fill-rule:nonzero;stroke:none"
               d="m 12054,1034.68 602.2,-804.918 -557.5,-218.0511 -345.2,565.5901 300.5,457.379 z m -850.2,245.82 -504.7,732.19 632.7,87.11 232.1,-439.76 -360.1,-379.54"
               inkscape:connector-curvature="0" />
            <path
               id="path5295"
               style="fill:#ffffff;fill-opacity:1;fill-rule:nonzero;stroke:none"
               d="m 10842.3,47.0703 c 0,0 -146.3,98.3207 -58.7,258.3207 87.6,160 315.2,426.75 459.5,604.371 144.2,177.578 329.6,338.708 429,466.528 99.4,127.81 194.5,400.15 207.9,543.67 13.3,143.47 104.4,489.53 203.8,617.34 99.4,127.81 382.3,336.6 699.7,105 321.5,-228.55 211.6,-542.03 117.2,-673.36 -94.4,-131.33 -405.5,-322.93 -542,-379.88 -136.6,-56.95 -374.1,-229.38 -468.5,-360.7 -94.4,-131.33 -228.9,-328.169 -358.1,-516.29 -129.3,-188.129 -286,-504.73 -415.7,-635.1989 -129.6,-130.4727 -274.1,-29.8008 -274.1,-29.8008"
               inkscape:connector-curvature="0" />
          </g>
        </g>
      </g>
    </g>
  </g>
</svg>
