<?xml version="1.0" encoding="utf-8"?>
<!-- Generator: Adobe Illustrator 18.0.0, SVG Export Plug-In . SVG Version: 6.00 Build 0)  -->
<!DOCTYPE svg PUBLIC "-//W3C//DTD SVG 1.1//EN" "http://www.w3.org/Graphics/SVG/1.1/DTD/svg11.dtd">
<svg version="1.1" id="Ebene_1" xmlns="http://www.w3.org/2000/svg" xmlns:xlink="http://www.w3.org/1999/xlink" x="0px" y="0px"
	 viewBox="0 0 240.9 240.9" enable-background="new 0 0 240.9 240.9" xml:space="preserve">
<g>
	<g>
		<path fill="#107F99" d="M103.6,205.8c-37.4,0-67.7-30.4-67.7-67.8s30.4-67.7,67.7-67.7s67.7,30.4,67.7,67.7S141,205.8,103.6,205.8
			z M103.6,90.2c-26.4,0-47.9,21.5-47.9,47.9c0,26.4,21.5,47.9,47.9,47.9s47.9-21.5,47.9-47.9C151.5,111.6,130,90.2,103.6,90.2z"/>
	</g>
	<g>
		<path fill="#107F99" d="M146,104.1c-2.5,0-5.1-1-7-2.9c-3.9-3.9-3.9-10.2,0-14l49.1-49.1c3.9-3.9,10.2-3.9,14,0
			c3.9,3.9,3.9,10.2,0,14L153,101.2C151.1,103.2,148.6,104.1,146,104.1z"/>
	</g>
	<g>
		<path fill="#107F99" d="M195.1,55h-41.8c-5.5,0-9.9-4.4-9.9-9.9s4.4-9.9,9.9-9.9h41.8c5.5,0,9.9,4.4,9.9,9.9S200.6,55,195.1,55z"
			/>
	</g>
	<g>
		<path fill="#107F99" d="M195.1,96.8c-5.5,0-9.9-4.4-9.9-9.9V45.1c0-5.5,4.4-9.9,9.9-9.9s9.9,4.4,9.9,9.9v41.8
			C205.1,92.3,200.6,96.8,195.1,96.8z"/>
	</g>
</g>
</svg>
