<?xml version="1.0" encoding="utf-8"?>
<!-- Generator: Adobe Illustrator 18.0.0, SVG Export Plug-In . SVG Version: 6.00 Build 0)  -->
<!DOCTYPE svg PUBLIC "-//W3C//DTD SVG 1.1//EN" "http://www.w3.org/Graphics/SVG/1.1/DTD/svg11.dtd">
<svg version="1.1" id="Ebene_1" xmlns="http://www.w3.org/2000/svg" xmlns:xlink="http://www.w3.org/1999/xlink" x="0px" y="0px"
	 viewBox="0 0 198.4 70.9" enable-background="new 0 0 198.4 70.9" xml:space="preserve">
<g>
	<path fill="#107F99" d="M28,57.2h-9.4V24.7l0.8-0.1c0.3,0,0.6-0.1,1-0.1c0.4,0,0.8,0,1.3,0c1.5,0,2.7,0.3,3.8,0.8
		c1.1,0.5,1.8,1.5,2,2.8c0.8-1.1,2-2,3.6-2.9c1.6-0.9,3.8-1.3,6.5-1.3c3.3,0,5.7,0.6,7.2,1.9c1.6,1.3,2.6,3,3,5.1
		c0.2,1.1,0.4,2.2,0.4,3.4c0.1,1.2,0.1,2.5,0.1,3.6v19.4h-9.3v-19c0-1,0-1.9-0.1-2.8c-0.1-0.9-0.3-1.6-0.5-2.2
		c-0.3-0.6-0.8-1.1-1.4-1.4c-0.7-0.3-1.6-0.5-2.8-0.5c-1.7,0-3.2,0.4-4.4,1.1C28.6,33,28,33.9,28,34.9V57.2z"/>
	<path fill="#107F99" d="M84,49.2c0,3.6,0.5,6.2,1.6,7.9c-0.8,0.3-1.6,0.5-2.3,0.7C82.6,58,81.8,58,81,58c-1.6,0-2.9-0.3-3.7-1
		c-0.8-0.6-1.4-1.6-1.6-2.8c-1,1.1-2.3,1.9-4,2.7c-1.6,0.7-3.7,1.1-6,1.1c-1.2,0-2.5-0.2-3.7-0.5c-1.2-0.3-2.4-0.9-3.4-1.7
		c-1-0.8-1.8-1.8-2.5-3.1c-0.6-1.3-1-2.9-1-4.8c0-2.3,0.6-4.2,1.7-5.7c1.1-1.5,2.5-2.6,4.2-3.5c1.7-0.8,3.5-1.4,5.5-1.8
		c2-0.3,3.8-0.5,5.4-0.6c0.5,0,1.1-0.1,1.6-0.1c0.5,0,1,0,1.5,0v-1.2c0-1.7-0.5-3-1.4-3.7c-0.9-0.7-2.5-1.1-4.6-1.1
		c-2,0-3.7,0.3-5.3,1c-1.5,0.6-3,1.4-4.5,2.2c-0.6-0.8-1.2-1.6-1.5-2.6c-0.4-0.9-0.6-1.6-0.6-2.1c0-0.6,0.4-1.2,1.1-1.8
		c0.7-0.6,1.7-1.2,2.9-1.6c1.2-0.5,2.7-0.9,4.3-1.2c1.6-0.3,3.3-0.4,5.1-0.4c2.5,0,4.6,0.3,6.3,0.8c1.7,0.5,3.1,1.3,4.2,2.3
		c1.1,1.1,1.8,2.4,2.3,4c0.5,1.6,0.7,3.4,0.7,5.5V49.2z M75.2,41.2c-0.3,0-0.6,0-1,0c-0.3,0-0.6,0-1,0.1c-1.1,0.1-2.3,0.2-3.4,0.4
		c-1.1,0.2-2.1,0.5-3,1c-0.9,0.4-1.6,1-2.1,1.8c-0.5,0.7-0.8,1.7-0.8,2.8c0,1.3,0.4,2.4,1.1,3.3c0.7,0.9,2,1.3,3.7,1.3
		c0.9,0,1.7-0.1,2.5-0.3c0.8-0.2,1.5-0.5,2.1-0.9c0.6-0.4,1.1-0.8,1.4-1.2c0.3-0.4,0.5-0.8,0.5-1.2V41.2z"/>
	<path fill="#107F99" d="M92.5,24.5l0-8.2c0-0.9,0.6-1.7,1.5-1.9l5.4-1.5c1.3-0.3,2.5,0.6,2.5,1.9l0,9.7l3.3,0
		c0.7,0,1.5,0.1,2.2,0.2c0.7,0.1,1.4,0.4,2,0.8c0.6,0.4,1.1,1,1.4,1.7c0.4,0.7,0.5,1.6,0.5,2.8l0,1.5h-9.4v14.7
		c0,3.2,1.3,4.8,3.9,4.8c0.6,0,1.2-0.1,1.8-0.3c0.6-0.2,1.1-0.4,1.6-0.7c0.5-0.3,0.9-0.5,1.2-0.8c0.3-0.3,0.5-0.5,0.7-0.6
		c0.7,1,1.2,1.9,1.6,2.6c0.4,0.7,0.5,1.4,0.5,2.1c0,0.6-0.2,1.2-0.7,1.8c-0.5,0.6-1.2,1.1-2,1.6c-0.9,0.5-1.9,0.9-3.2,1.2
		c-1.2,0.3-2.6,0.4-4.1,0.4c-2.9,0-5.1-0.6-6.7-1.7c-1.6-1.1-2.7-2.5-3.3-4.3c-0.3-0.9-0.5-1.9-0.6-2.9c-0.1-1-0.1-2-0.1-3V31.6
		L92.5,24.5z"/>
	<path fill="#107F99" d="M134,51.3c1,0,1.9-0.1,2.8-0.3c0.8-0.2,1.6-0.5,2.2-0.9c0.6-0.3,1.2-0.7,1.6-1.1c0.5-0.4,0.8-0.7,1-1
		c0.3,0.3,0.5,0.6,0.8,1.1c0.3,0.4,0.5,0.9,0.8,1.4c0.2,0.5,0.4,1,0.5,1.4c0.1,0.5,0.2,0.9,0.2,1.2c0,0.5-0.1,0.9-0.3,1.3
		c-0.2,0.4-0.6,0.9-1.2,1.3c-0.9,0.6-2.1,1.2-3.7,1.8c-1.6,0.5-3.6,0.8-6.1,0.8c-1.6,0-3.4-0.2-5.4-0.7c-1.9-0.5-3.7-1.3-5.4-2.6
		c-1.6-1.3-3-3.1-4.1-5.3s-1.6-5.2-1.6-8.9c0-3.5,0.6-6.3,1.7-8.5c1.1-2.2,2.6-3.9,4.3-5.2c1.7-1.3,3.5-2.2,5.4-2.6
		c1.9-0.5,3.6-0.7,5.1-0.7c1.9,0,3.7,0.2,5.3,0.6c1.6,0.4,2.9,1,4,1.6c0.9,0.6,1.5,1.1,1.8,1.6c0.3,0.5,0.5,1.1,0.5,1.8
		c0,0.6-0.2,1.4-0.6,2.4c-0.4,0.9-0.9,1.8-1.6,2.6c-0.7-0.8-1.8-1.6-3.2-2.3c-1.4-0.8-3-1.2-4.7-1.2c-3,0-5.2,0.9-6.5,2.8
		c-1.3,1.9-1.9,4.2-1.9,7.1c0,1.5,0.1,2.8,0.4,4.1c0.3,1.3,0.7,2.4,1.4,3.4c0.7,1,1.5,1.7,2.6,2.3C131.2,51,132.5,51.3,134,51.3z"/>
	<path fill="#107F99" d="M170.5,38.2c0-1,0-1.9-0.1-2.8c-0.1-0.9-0.3-1.6-0.5-2.2c-0.3-0.6-0.8-1.1-1.4-1.4
		c-0.7-0.3-1.6-0.5-2.8-0.5c-1.7,0-3.2,0.4-4.4,1.1c-1.2,0.7-1.8,1.6-1.8,2.6v22.3H150V12.8c0.1,0,0.5-0.1,1.1-0.2
		c0.6-0.1,1.3-0.1,2.1-0.1c0.7,0,1.5,0.1,2.2,0.2c0.7,0.1,1.4,0.4,2,0.8c0.6,0.4,1.1,0.9,1.4,1.7c0.4,0.7,0.5,1.6,0.5,2.8v9.6
		c0.4-0.4,0.8-0.8,1.4-1.3s1.2-0.9,2-1.3c0.8-0.4,1.7-0.7,2.7-0.9c1-0.2,2.2-0.3,3.5-0.3c3.3,0,5.7,0.6,7.2,1.9c1.6,1.3,2.6,3,3,5.1
		c0.2,1.1,0.4,2.2,0.4,3.4c0.1,1.2,0.1,2.5,0.1,3.6v19.4h-9.3V38.2z"/>
</g>
</svg>
