<?xml version="1.0" encoding="utf-8"?>
<!-- Generator: Adobe Illustrator 18.0.0, SVG Export Plug-In . SVG Version: 6.00 Build 0)  -->
<!DOCTYPE svg PUBLIC "-//W3C//DTD SVG 1.1//EN" "http://www.w3.org/Graphics/SVG/1.1/DTD/svg11.dtd">
<svg version="1.1" id="Ebene_1" xmlns="http://www.w3.org/2000/svg" xmlns:xlink="http://www.w3.org/1999/xlink" x="0px" y="0px"
	 viewBox="0 0 312.4 145.5" enable-background="new 0 0 312.4 145.5" xml:space="preserve">
<g>
	<path fill="#FFFFFF" d="M54.2,113.7c-5.5,0-10-4.5-10-10v-62c0-5.5,4.5-10,10-10h212.7c5.5,0,10,4.5,10,10v62c0,5.5-4.5,10-10,10
		H54.2z"/>
	<path fill="#E35746" d="M266.8,33.7c4.4,0,8,3.6,8,8v62c0,4.4-3.6,8-8,8H54.2c-4.4,0-8-3.6-8-8v-62c0-4.4,3.6-8,8-8H266.8
		 M266.8,29.7H54.2c-6.6,0-12,5.4-12,12v62c0,6.6,5.4,12,12,12h212.7c6.6,0,12-5.4,12-12v-62C278.8,35.1,273.4,29.7,266.8,29.7
		L266.8,29.7z"/>
</g>
<g>
	<path fill="#E35746" d="M76.9,80.5c-0.3,0.3-0.7,0.5-1.2,0.5L68,81.3c-0.5,0-0.9-0.1-1.2-0.5c-0.4-0.3-0.5-0.7-0.5-1.2l-0.5-17.1
		c0-0.5,0.1-0.9,0.5-1.2s0.7-0.5,1.2-0.5l7.7-0.2c0.5,0,0.9,0.1,1.2,0.5c0.3,0.3,0.5,0.7,0.5,1.2l0.5,17.1
		C77.4,79.7,77.3,80.1,76.9,80.5z M72.2,64.5c-0.3-0.3-0.8-0.5-1.2-0.5c-0.5,0-0.9,0.2-1.2,0.5c-0.3,0.3-0.5,0.8-0.5,1.2
		c0,0.5,0.2,0.9,0.5,1.2c0.3,0.3,0.8,0.5,1.2,0.5c0.5,0,0.9-0.2,1.2-0.5s0.5-0.8,0.5-1.2C72.7,65.2,72.5,64.8,72.2,64.5z
		 M107.7,81.9c-1,1-2.2,1.6-3.6,1.6l-7.4,0.2c0.1,0.2,0.2,0.5,0.2,0.6c0.1,0.2,0.2,0.4,0.3,0.6c0.1,0.2,0.2,0.4,0.3,0.5
		c0.3,0.6,0.6,1.1,0.8,1.5c0.2,0.4,0.4,0.9,0.6,1.6c0.2,0.7,0.3,1.3,0.3,2c0,0.4,0,0.8,0,1c0,0.3,0,0.7-0.1,1.2
		c-0.1,0.5-0.2,1-0.3,1.3c-0.1,0.4-0.3,0.8-0.6,1.2c-0.3,0.5-0.6,0.8-1,1.1c-0.4,0.3-0.9,0.5-1.6,0.7s-1.4,0.3-2.2,0.4
		c-0.5,0-0.9-0.1-1.2-0.5c-0.4-0.3-0.7-0.8-1-1.3c-0.3-0.5-0.5-1-0.6-1.4c-0.1-0.4-0.2-0.9-0.4-1.6c-0.2-0.7-0.3-1.3-0.4-1.6
		s-0.3-0.8-0.5-1.3c-0.2-0.5-0.5-0.9-0.9-1.3c-0.6-0.6-1.5-1.6-2.8-3.1c-0.9-1.1-1.8-2.2-2.8-3.2c-1-1-1.7-1.5-2.1-1.5
		c-0.4,0-0.8-0.2-1.2-0.5c-0.3-0.3-0.5-0.7-0.5-1.1l-0.5-17.2c0-0.5,0.1-0.9,0.5-1.2c0.3-0.3,0.7-0.5,1.2-0.6c0.6,0,2-0.5,4.2-1.3
		c1.4-0.5,2.4-0.9,3.2-1.2c0.8-0.3,1.8-0.6,3.2-0.9c1.4-0.3,2.7-0.5,3.8-0.5l0.5,0l2-0.1l1,0c2.4,0,4.2,0.6,5.3,1.9
		c1.1,1.2,1.6,2.8,1.5,4.8c0.7,0.6,1.2,1.5,1.5,2.5c0.3,1.1,0.4,2.1,0.1,3.1c0.9,1.1,1.3,2.3,1.3,3.6c0,0.6-0.1,1.3-0.3,2
		c1,1.1,1.5,2.4,1.6,3.9C109.2,79.6,108.7,80.9,107.7,81.9z"/>
</g>
<g>
	<path fill="#E35746" d="M133.5,90.5V63.3h4c0.8,0,1.4,0.4,1.7,1.2l0.5,2.1c0.5-0.6,1.1-1.1,1.7-1.5c0.6-0.5,1.3-0.9,1.9-1.2
		c0.7-0.3,1.4-0.6,2.2-0.8s1.6-0.3,2.5-0.3c1.5,0,2.8,0.3,3.9,0.8c1.1,0.5,2.1,1.2,2.9,2.1c0.8,0.9,1.4,2,1.7,3.3
		c0.4,1.3,0.6,2.7,0.6,4.2v17.3h-6.5V73.2c0-1.7-0.4-2.9-1.1-3.9s-1.9-1.4-3.5-1.4c-1.1,0-2.2,0.3-3.2,0.8c-1,0.5-1.9,1.2-2.8,2.1
		v19.7H133.5z"/>
	<path fill="#E35746" d="M178,62.8c2,0,3.8,0.3,5.5,1c1.7,0.7,3.1,1.6,4.2,2.8c1.2,1.2,2.1,2.7,2.7,4.4s1,3.7,1,5.8
		c0,2.2-0.3,4.1-1,5.8s-1.5,3.2-2.7,4.4c-1.2,1.2-2.6,2.2-4.2,2.8c-1.7,0.7-3.5,1-5.5,1c-2,0-3.9-0.3-5.5-1
		c-1.7-0.7-3.1-1.6-4.3-2.8c-1.2-1.2-2.1-2.7-2.7-4.4s-1-3.7-1-5.8c0-2.1,0.3-4.1,1-5.8s1.6-3.2,2.7-4.4s2.6-2.1,4.3-2.8
		C174.2,63.2,176,62.8,178,62.8z M178,85.8c2.3,0,3.9-0.8,5-2.3c1.1-1.5,1.6-3.7,1.6-6.7s-0.5-5.2-1.6-6.7c-1.1-1.5-2.8-2.3-5-2.3
		c-2.3,0-4,0.8-5.1,2.3c-1.1,1.5-1.7,3.8-1.7,6.7s0.6,5.1,1.7,6.7C174,85.1,175.7,85.8,178,85.8z"/>
	<path fill="#E35746" d="M199.1,99.3V63.3h4c0.8,0,1.4,0.4,1.7,1.2l0.5,2.5c1.1-1.3,2.4-2.3,3.8-3c1.4-0.8,3.1-1.2,5-1.2
		c1.5,0,2.8,0.3,4.1,0.9c1.2,0.6,2.3,1.5,3.2,2.7c0.9,1.2,1.6,2.6,2.1,4.3c0.5,1.7,0.7,3.7,0.7,5.9c0,2-0.3,3.9-0.8,5.6
		s-1.3,3.2-2.3,4.5c-1,1.3-2.2,2.3-3.7,3c-1.4,0.7-3.1,1.1-4.8,1.1c-1.5,0-2.8-0.2-3.9-0.7c-1.1-0.5-2-1.1-2.9-1.9v11.1H199.1z
		 M211.8,67.9c-1.4,0-2.5,0.3-3.5,0.9c-1,0.6-1.9,1.4-2.7,2.4v12.2c0.7,0.9,1.6,1.6,2.4,1.9c0.9,0.4,1.8,0.5,2.8,0.5
		c1,0,1.9-0.2,2.7-0.6s1.5-0.9,2-1.7s1-1.7,1.3-2.9s0.5-2.5,0.5-4.1c0-1.6-0.1-2.9-0.4-4c-0.3-1.1-0.6-2-1.1-2.7
		c-0.5-0.7-1.1-1.2-1.7-1.5C213.5,68.1,212.7,67.9,211.8,67.9z"/>
	<path fill="#E35746" d="M243.4,62.8c1.7,0,3.3,0.3,4.7,0.8c1.4,0.5,2.7,1.3,3.7,2.4c1,1.1,1.9,2.3,2.5,3.9c0.6,1.5,0.9,3.3,0.9,5.2
		c0,1-0.1,1.7-0.3,2c-0.2,0.3-0.6,0.5-1.2,0.5h-16.8c0.1,1.4,0.4,2.6,0.7,3.6c0.4,1,0.9,1.9,1.5,2.5c0.6,0.7,1.4,1.2,2.3,1.5
		c0.9,0.3,1.8,0.5,2.9,0.5c1.1,0,2-0.1,2.7-0.4c0.8-0.2,1.4-0.5,2-0.8c0.6-0.3,1.1-0.6,1.5-0.8c0.4-0.2,0.9-0.4,1.3-0.4
		c0.5,0,1,0.2,1.2,0.6l1.9,2.4c-0.7,0.8-1.5,1.6-2.4,2.1s-1.8,1-2.8,1.4c-1,0.3-2,0.6-3,0.7c-1,0.1-2,0.2-3,0.2
		c-1.9,0-3.6-0.3-5.3-0.9c-1.6-0.6-3-1.6-4.2-2.8c-1.2-1.2-2.1-2.7-2.8-4.6c-0.7-1.8-1-3.9-1-6.3c0-1.9,0.3-3.6,0.9-5.2
		s1.5-3.1,2.6-4.3c1.1-1.2,2.5-2.2,4.1-2.9C239.6,63.2,241.4,62.8,243.4,62.8z M243.6,67.5c-1.9,0-3.4,0.5-4.5,1.6
		c-1.1,1.1-1.8,2.6-2.1,4.6h12.3c0-0.8-0.1-1.6-0.4-2.4c-0.2-0.8-0.6-1.4-1.1-2c-0.5-0.6-1.1-1-1.8-1.3
		C245.4,67.7,244.5,67.5,243.6,67.5z"/>
</g>
</svg>
